Coordinates
version=1
nRows=5
nColumns=40
inDegrees=yes

Units are S.I. units (second, meters, Newtons, ...)
Angles are in degrees.

endheader
time	pelvis_tilt	pelvis_list	pelvis_rotation	pelvis_tx	pelvis_ty	pelvis_tz	hip_flexion_r	hip_adduction_r	hip_rotation_r	knee_angle_r	knee_angle_r_beta	ankle_angle_r	subtalar_angle_r	mtp_angle_r	hip_flexion_l	hip_adduction_l	hip_rotation_l	knee_angle_l	knee_angle_l_beta	ankle_angle_l	subtalar_angle_l	mtp_angle_l	lumbar_extension	lumbar_bending	lumbar_rotation	arm_flex_r	arm_add_r	arm_rot_r	elbow_flex_r	pro_sup_r	wrist_flex_r	wrist_dev_r	arm_flex_l	arm_add_l	arm_rot_l	elbow_flex_l	pro_sup_l	wrist_flex_l	wrist_dev_l
     58.80214286	     -7.11714719	     -7.03499591	      3.33285229	      1.06456588	      0.91476305	      0.49167941	      2.40004036	      5.84990481	    -13.33193787	     10.67059837	     10.67059837	     17.68594394	      4.87055905	     -2.47212629	     35.14018118	     -8.58846029	      1.82513006	     26.24831207	     26.24831207	      6.30926240	    -13.33720650	     10.97935678	    -10.70998500	      6.86745640	      3.85056144	     60.41135880	    -14.09092575	      5.74877301	    112.35507892	     43.85814327	      0.00000000	      0.00000000	    -19.68073821	    -10.22312898	     18.71949816	     31.31792181	     43.63680838	      0.00000000	      0.00000000
     58.81428571	     -7.15454523	     -7.07070811	      3.27598862	      1.06563115	      0.91342679	      0.48931681	      1.95465559	      5.72608048	    -13.13223882	     10.92313846	     10.92313846	     18.26558136	      4.80114981	     -2.16729673	     34.68420179	     -8.46793464	      1.97470786	     26.82577060	     26.82577060	      6.07206313	    -13.78633351	     10.04961097	    -10.43532819	      6.85914567	      3.80794883	     60.52881529	    -14.21329213	      6.27747361	    114.65551435	     43.79125914	      0.00000000	      0.00000000	    -20.41300116	    -10.19093856	     18.82579956	     32.04496533	     43.63705044	      0.00000000	      0.00000000
     58.82642857	     -7.11962041	     -7.00721595	      3.25743673	      1.06663457	      0.91237435	      0.48679934	      1.54397354	      5.46857010	    -12.94641372	     11.37939564	     11.37939564	     18.90714154	      4.61930359	     -1.58551282	     34.22918797	     -8.23948617	      2.11097345	     27.46054785	     27.46054785	      5.87961592	    -14.29986522	      8.83580690	    -10.23930583	      6.70138962	      4.03562479	     60.28041438	    -14.82308028	      6.38261489	    116.62482160	     43.76479459	      0.00000000	      0.00000000	    -20.72704029	    -10.29240262	     19.08271609	     32.77386640	     43.64924765	      0.00000000	      0.00000000
     58.83857143	     -7.02684288	     -6.92781730	      3.25023764	      1.06749219	      0.91161978	      0.48416281	      1.07917656	      5.18071418	    -12.79999065	     11.80984723	     11.80984723	     19.27626406	      4.46242705	     -1.60017434	     33.86351869	     -7.99221660	      2.28201009	     28.27571398	     28.27571398	      6.19380543	    -14.66881945	      8.46663364	    -10.10504996	      6.54720697	      3.85007737	     60.12486385	    -14.76312830	      6.42898246	    117.30205482	     43.74931364	      0.00000000	      0.00000000	    -20.86055879	    -10.15837916	     19.19761348	     32.75446974	     43.64338716	      0.00000000	      0.00000000
     58.85071429	     -7.02664486	     -6.77295504	      3.24879267	      1.06812941	      0.91106416	      0.48131678	      0.94305488	      4.74491202	    -12.60346678	     12.66247798	     12.66247798	     19.82834551	      4.09534283	     -1.02666492	     33.59482140	     -7.63693066	      2.42801396	     28.98839591	     28.98839591	      6.52384475	    -15.12990529	      8.03747596	     -9.98640575	      6.34996725	      4.16875705	     59.38873304	    -15.38824494	      6.18050092	    119.63726963	     43.73050305	      0.00000000	      0.00000000	    -20.47462429	    -10.16808088	     19.61023197	     32.75612882	     43.66422724	      0.00000000	      0.00000000
